<?xml version="1.0" encoding="UTF-8" standalone="no"?>
<!-- Created with Inkscape (http://www.inkscape.org/) -->

<svg
   width="37.087765mm"
   height="32.983551mm"
   viewBox="0 0 37.087765 32.983551"
   version="1.1"
   id="svg1"
   xml:space="preserve"
   xmlns="http://www.w3.org/2000/svg"
   xmlns:svg="http://www.w3.org/2000/svg"><defs
     id="defs1"><linearGradient
       id="swatch5"><stop
         style="stop-color:#000000;stop-opacity:1;"
         offset="0"
         id="stop5" /></linearGradient><linearGradient
       id="swatch2"><stop
         style="stop-color:#000000;stop-opacity:1;"
         offset="0"
         id="stop2" /></linearGradient><linearGradient
       id="swatch1"><stop
         style="stop-color:#ffffff;stop-opacity:1;"
         offset="0"
         id="stop1" /></linearGradient></defs><g
     id="layer4"
     transform="translate(-86.936566,-225.81565)"><path
       d="m 97.625879,225.81566 c 5.793791,0 7.271871,0.54452 8.641361,2.08633 0.87608,0.98631 1.19924,2.1545 1.83355,2.62034 0.63432,0.46584 1.95017,0.5017 7.07337,0.4651 6.47763,0 8.85017,1.92411 8.85017,6.64374 -0.0338,3.58586 -0.006,5.87879 -0.006,9.46485 0,2.06993 -0.10845,3.8599 -0.44259,5.36284 -0.33856,1.5241 -0.93336,2.86407 -1.98353,3.91424 -1.05017,1.05017 -2.39014,1.64496 -3.91422,1.98353 -1.50296,0.33411 -3.29293,0.44258 -5.36286,0.44258 H 98.639768 c -2.069995,0 -3.859943,-0.10845 -5.362872,-0.44258 -1.523995,-0.33857 -2.864076,-0.93336 -3.914249,-1.98353 -1.050154,-1.05017 -1.644882,-2.39014 -1.983574,-3.91424 -0.334,-1.50294 -0.442503,-3.29291 -0.442503,-5.36284 v -9.96776 c 0,-2.06999 0.108505,-3.85993 0.442503,-5.36287 0.338692,-1.52398 0.93342,-2.86407 1.983574,-3.91424 1.050173,-1.05017 2.390069,-2.03549 8.263232,-2.03549 z m 9.706001,14.44237 c 0,-1.02404 -0.83009,-1.85413 -1.85412,-1.85413 -1.02404,0 -1.85413,0.83009 -1.85413,1.85413 v 5.72143 l -1.47012,-1.47013 c -0.72407,-0.72403 -1.89803,-0.72403 -2.622115,0 -0.724071,0.72403 -0.724071,1.89806 0,2.62209 l 4.519435,4.51942 c 0.0198,0.0198 0.0401,0.0393 0.0607,0.0582 0.33893,0.36916 0.82545,0.60074 1.36629,0.60074 0.54085,0 1.02737,-0.23158 1.3663,-0.60074 0.0206,-0.0189 0.0409,-0.0384 0.0607,-0.0582 l 4.51943,-4.51942 c 0.72403,-0.72403 0.72403,-1.89806 0,-2.62209 -0.72403,-0.72403 -1.89807,-0.72403 -2.6221,0 l -1.47012,1.47013 z"
       style="clip-rule:evenodd;fill:#ffead7;fill-opacity:1;fill-rule:evenodd;stroke:none;stroke-width:1.85412"
       id="path1-6" /></g></svg>
