<?xml version="1.0" encoding="UTF-8" standalone="no"?>
<!-- Created with Inkscape (http://www.inkscape.org/) -->

<svg
   width="31.129204mm"
   height="37.321041mm"
   viewBox="0 0 31.129204 37.321041"
   version="1.1"
   id="svg1"
   xml:space="preserve"
   xmlns="http://www.w3.org/2000/svg"
   xmlns:svg="http://www.w3.org/2000/svg"><defs
     id="defs1"><linearGradient
       id="swatch5"><stop
         style="stop-color:#000000;stop-opacity:1;"
         offset="0"
         id="stop5" /></linearGradient><linearGradient
       id="swatch2"><stop
         style="stop-color:#000000;stop-opacity:1;"
         offset="0"
         id="stop2" /></linearGradient><linearGradient
       id="swatch1"><stop
         style="stop-color:#ffffff;stop-opacity:1;"
         offset="0"
         id="stop1" /></linearGradient></defs><g
     id="layer4"
     transform="translate(-172.45261,-221.2661)"><g
       style="fill:#ffe7d7;fill-opacity:1;stroke:none"
       id="g23"
       transform="matrix(1.9453981,0,0,1.9453981,164.8607,218.46035)"><path
         d="m 19.90383,13.846162 c -0.02404,3.990033 -2.834482,6.073315 -4.6412,6.751 -0.4314,0.1342 -0.801615,-0.205445 -0.4569,-0.7396 1.008603,-1.562884 2.017118,-2.988466 1.725177,-5.660547 -0.146098,-1.337212 -1.21596,-3.273093 -3.413374,-4.5973222 -0.37488,-0.2259146 -0.758722,0.037186 -0.665124,0.4478122 0.493121,2.163376 -0.345054,4.027222 -0.754914,4.199134 -0.40986,0.171912 -1.303565,-0.673973 -1.611665,-1.054273 -0.1659999,-0.2048 -0.4659599,-0.2076 -0.6573899,-0.0264 -0.74636,0.7067 -1.679633,1.813352 -1.79128,3.1802 -0.1190041,1.456918 0.6367584,2.818413 1.2355681,3.482501 0.3254547,0.360933 0.3020165,1.001902 -0.60434,0.7251 C 6.0289214,19.762518 3.8405474,16.929113 3.9038301,13.846162 4,9.1610442 7.3726338,8.3124738 9.8598801,2.2230816 10.11953,1.5732916 10.623309,1.1460449 11.47653,1.6919916 c 3.748236,2.3983676 8.455149,7.5323539 8.4273,12.1541704 z"
         fill="#1c274c"
         id="path1-3"
         style="fill:#ffe7d7;fill-opacity:1;stroke:none" /></g></g></svg>
