<?xml version="1.0" encoding="UTF-8" standalone="no"?>
<!-- Created with Inkscape (http://www.inkscape.org/) -->

<svg
   width="36.581608mm"
   height="38.501209mm"
   viewBox="0 0 36.581608 38.501209"
   version="1.1"
   id="svg1"
   xml:space="preserve"
   xmlns="http://www.w3.org/2000/svg"
   xmlns:svg="http://www.w3.org/2000/svg"><defs
     id="defs1"><linearGradient
       id="swatch5"><stop
         style="stop-color:#000000;stop-opacity:1;"
         offset="0"
         id="stop5" /></linearGradient><linearGradient
       id="swatch2"><stop
         style="stop-color:#000000;stop-opacity:1;"
         offset="0"
         id="stop2" /></linearGradient><linearGradient
       id="swatch1"><stop
         style="stop-color:#ffffff;stop-opacity:1;"
         offset="0"
         id="stop1" /></linearGradient></defs><g
     id="layer4"
     transform="translate(-46.505963,-219.95624)"><path
       id="rect25"
       style="fill:#ffead7;fill-opacity:1;stroke-width:2.22728;stroke-linejoin:round"
       d="M 68.210078,228.92536 50.504039,246.6314 c -2.333782,2.33378 -5.278889,9.35119 -3.401062,11.22902 1.877833,1.87783 8.895249,-1.06726 11.229033,-3.40105 l 17.706039,-17.70604 z m 8.370574,17.54561 c -0.308997,-0.78628 -1.417583,-0.78628 -1.72658,0 l -0.301237,0.76653 c -0.09433,0.24014 -0.283651,0.43019 -0.522824,0.52484 l -0.763784,0.30234 c -0.783383,0.31003 -0.783383,1.42287 0,1.73291 l 0.763784,0.30234 c 0.239173,0.0946 0.428491,0.28469 0.522824,0.52484 l 0.301237,0.76653 c 0.309002,0.78629 1.417579,0.78629 1.72658,0 l 0.301237,-0.76653 c 0.09433,-0.24015 0.283651,-0.4302 0.522824,-0.52484 l 0.763784,-0.30234 c 0.783383,-0.31004 0.783383,-1.42288 0,-1.73291 l -0.763784,-0.30234 c -0.239173,-0.0946 -0.428491,-0.2847 -0.522824,-0.52484 z M 50.515967,233.6425 c -0.308877,-0.78626 -1.417685,-0.78626 -1.726561,0 l -0.301198,0.76662 c -0.09445,0.24005 -0.283729,0.43008 -0.522921,0.52475 l -0.763649,0.30234 c -0.783422,0.31013 -0.783422,1.42297 0,1.73299 l 0.763649,0.30236 c 0.239192,0.0946 0.428473,0.28468 0.522921,0.52464 l 0.301198,0.76673 c 0.308876,0.7863 1.417684,0.7863 1.726561,0 l 0.301198,-0.76673 c 0.09445,-0.23996 0.283729,-0.43 0.522921,-0.52464 l 0.763841,-0.30236 c 0.78323,-0.31002 0.78323,-1.42286 0,-1.73299 l -0.763841,-0.30234 c -0.239192,-0.0947 -0.428473,-0.2847 -0.522921,-0.52475 z m 7.423789,-13.09656 c -0.309068,-0.78629 -1.417684,-0.78629 -1.726561,0 l -0.826231,2.10258 c -0.09445,0.24006 -0.283729,0.43009 -0.522921,0.52476 l -2.094755,0.82925 c -0.783422,0.31011 -0.783422,1.42286 0,1.73298 l 2.094755,0.82926 c 0.239192,0.0947 0.428473,0.28469 0.522921,0.52475 l 0.826039,2.10259 c 0.309069,0.78628 1.417685,0.78628 1.726753,10e-6 l 0.826039,-2.1026 c 0.09445,-0.24006 0.283729,-0.43007 0.522921,-0.52475 l 2.094756,-0.82926 c 0.783422,-0.31012 0.783422,-1.42287 0,-1.73298 l -2.094756,-0.82925 c -0.239192,-0.0947 -0.428473,-0.2847 -0.522921,-0.52476 z m 23.52659,2.9512 c 2.161637,2.16162 2.161637,5.66632 0,7.82794 l -3.047954,3.04795 c -0.02289,-0.0265 -0.04687,-0.0523 -0.07201,-0.0774 l -7.678723,-7.67871 c -0.02507,-0.0251 -0.05081,-0.049 -0.07719,-0.0718 l 3.047934,-3.04792 c 2.161618,-2.16164 5.666322,-2.16164 7.82794,0 z" /></g></svg>
