<?xml version="1.0" encoding="UTF-8" standalone="no"?>
<!-- Created with Inkscape (http://www.inkscape.org/) -->

<svg
   width="72.101471mm"
   height="71.408066mm"
   viewBox="0 0 72.101471 71.408066"
   version="1.1"
   id="svg1"
   xml:space="preserve"
   xmlns="http://www.w3.org/2000/svg"
   xmlns:svg="http://www.w3.org/2000/svg"><defs
     id="defs1"><linearGradient
       id="swatch5"><stop
         style="stop-color:#000000;stop-opacity:1;"
         offset="0"
         id="stop5" /></linearGradient><linearGradient
       id="swatch2"><stop
         style="stop-color:#000000;stop-opacity:1;"
         offset="0"
         id="stop2" /></linearGradient><linearGradient
       id="swatch1"><stop
         style="stop-color:#ffffff;stop-opacity:1;"
         offset="0"
         id="stop1" /></linearGradient></defs><g
     id="layer3"
     transform="translate(-77.934149,-38.673979)"><path
       style="fill:#ec865b;fill-opacity:1"
       d="m 114.33169,109.13818 c 0.62937,-1.75049 2.86514,-0.45144 2.83424,0.16999 -1.31636,0.20061 -2.63135,0.42715 -3.91798,0.77387 0.36125,-0.31461 0.72248,-0.62921 1.08374,-0.94383 z m 10.76491,0.36235 c -2.16802,0.0815 -4.22508,-0.37651 -6.10998,-1.46183 -1.21479,-0.48575 -2.1665,-1.51715 -3.44218,-1.8395 -2.11032,0.96932 -3.47565,3.3491 -5.98324,3.33955 -3.90878,0.47491 -8.26636,-0.13346 -11.068016,-3.1354 -3.326223,-3.12549 -5.962585,-7.169756 -6.629447,-11.756216 -0.295354,-2.40281 -0.760424,-1.008805 -0.834243,0.622001 -0.146055,2.15984 0.112657,4.526251 1.01065,6.480435 0.76576,1.86865 3.352354,2.30138 3.85746,4.21246 -0.233129,0.97145 -2.660781,-0.56587 -3.774543,-0.53319 -2.605449,-0.69519 -5.266032,-1.62053 -6.880668,-3.9243 -2.898029,-2.97934 -4.698284,-6.822284 -6.558034,-10.48534 -1.03587,-2.655966 -0.709994,-5.636054 -0.671852,-8.427818 1.057509,-2.591445 1.456426,-5.677326 3.798679,-7.498176 2.492076,-2.414858 4.833381,-5.005367 7.36471,-7.356361 3.179572,-2.099689 6.112834,-5.18204 6.396182,-9.166601 0.295445,-3.264845 -0.542162,-6.450311 -1.772114,-9.443306 -0.445649,-2.482221 -1.683252,-4.766853 -2.574436,-7.069408 0.405365,-1.371382 2.008404,0.970912 3.007224,0.626065 1.999678,0.150427 3.5713,-1.090976 4.567012,-2.669324 1.04924,-1.95989 1.646796,-1.277225 2.143406,0.568613 1.99605,3.69163 3.92763,7.490993 6.54962,10.781315 1.2191,1.025597 2.3442,3.265823 4.23617,2.183326 3.92521,-1.137788 8.06967,-1.056776 12.07445,-0.465998 3.71297,0.133108 6.97269,2.181561 10.46841,3.227239 2.29034,0.92359 4.85388,1.507414 6.39478,3.606253 1.70567,1.893719 4.03221,3.132737 5.16869,5.495399 1.57631,2.807237 2.2348,6.081763 3.71442,8.913584 0.59874,4.018754 0.64228,8.152477 0.14107,12.16216 -0.52604,1.493162 -1.28443,3.00675 -2.75081,3.75833 -0.84782,2.454851 -1.93586,4.879664 -3.99359,6.581 -1.23185,1.477687 -2.99756,2.26548 -4.84914,2.605611 -1.542,3.091147 -3.71565,6.001547 -6.48168,8.079797 -1.31392,1.23587 -3.03122,1.31455 -4.70337,1.55829 -0.60672,0.11529 -1.19359,0.44591 -1.81559,0.43133 z m -1.19519,-1.22618 c 0.62547,-0.26333 3.9096,-1.31716 1.67928,-0.97594 -2.12171,0.48841 -4.09497,-0.23197 -5.98019,-1.15772 -1.51781,-0.68934 1.18898,1.31844 1.81785,1.6766 0.77722,0.27094 1.68029,0.61982 2.483,0.45747 z m -2.88061,-4.53156 c -1.45635,-1.76383 -3.05906,-3.71956 -2.98812,-6.123991 -0.21596,-2.789302 0.0911,-5.682327 -1.35542,-8.203951 -1.06894,-3.186803 -2.94554,-6.098814 -3.27841,-9.493508 -0.34338,-1.858147 -0.14589,1.877638 -0.031,2.436745 0.14987,3.423643 1.07961,6.763049 2.23297,9.957015 0.18724,3.728722 1.0131,7.613023 3.48449,10.5248 0.18818,-0.0154 3.33858,2.1557 1.93556,0.90289 z m 7.61895,0.0204 c 1.49319,-1.40611 3.0267,-3.04651 2.88412,-5.261114 0.10658,-2.379514 0.65676,-4.823305 -0.49487,-7.046176 -1.23016,-4.89065 -3.93252,-9.17923 -6.56204,-13.409641 -1.9528,-3.941028 -4.71121,-7.385762 -7.89271,-10.394226 -3.39472,-3.941837 -6.71762,-7.953934 -10.45765,-11.568744 -0.48242,-0.647227 -2.81098,-2.813487 -2.43377,-1.781704 1.38016,3.002077 2.26717,6.301869 4.39438,8.872764 1.56291,2.706021 3.84535,5.241987 4.95523,8.059985 0.88685,3.697 0.95736,7.569853 2.45804,11.105627 1.15656,4.641814 3.19625,9.02398 5.07176,13.413211 1.16959,2.059919 1.56277,4.630618 3.15109,6.401618 1.21828,1.35841 3.29777,1.37057 4.92642,1.6084 z m -0.10082,-1.8847 c 0.93418,-3.022147 1.21059,-6.348542 0.0459,-9.354463 -0.0862,-0.979595 -0.84572,-3.550174 -0.5721,-3.665482 0.97134,2.340453 3.45906,4.264159 2.7882,7.018689 -0.12945,1.877062 -0.0567,3.931086 -1.61351,5.284746 -0.15172,0.11436 -0.59752,0.92839 -0.64847,0.71651 z m -19.67525,1.24418 c -2.73824,-1.70142 -4.46203,-4.72829 -6.55404,-7.190671 -1.59107,-2.355613 -3.328784,-4.677094 -4.507668,-7.267844 -0.503442,-4.126187 -0.372469,-8.292161 0.532999,-12.351756 -0.514218,-3.398237 -1.068066,-6.873903 -0.859999,-10.305464 -1.197273,2.23429 -3.065556,4.139639 -3.378137,6.775126 -1.088957,5.503117 -3.096443,11.476836 -0.503288,16.894829 1.170835,2.446275 1.657426,5.274111 3.668949,7.215486 1.104691,1.77717 2.36545,3.432284 4.335074,4.300334 2.08461,1.42493 4.76318,2.25638 7.26611,1.92996 z m -7.11761,-2.92551 c -2.021934,-1.49969 -3.992899,-3.233092 -4.963435,-5.624261 -1.325466,-2.768326 -3.228733,-5.40205 -3.291382,-8.581024 1.840236,2.941593 3.820702,5.801736 5.855807,8.593864 0.81908,2.065061 1.74402,4.149613 2.95924,5.955421 -0.18675,-0.11458 -0.37349,-0.22933 -0.56023,-0.344 z M 93.818396,78.856217 c 0.18927,-2.358975 0.685076,-5.25445 1.447049,-7.159859 0.485839,1.234661 0.648821,2.473491 -0.147812,3.587728 -0.487225,1.215824 -0.442744,2.668441 -1.32522,3.69291 z m 18.960094,22.912803 c -0.48373,-2.670482 1.78921,-5.176333 0.55713,-7.763612 -0.65234,-2.798414 -1.81245,-5.384573 -3.35585,-7.798548 -1.68318,-2.357189 -0.77516,-5.423993 -1.0203,-8.184897 -0.0474,-2.785229 -0.25084,-5.629006 -1.70995,-8.074932 -1.33194,-2.844419 -2.45055,-5.737378 -4.0644,-8.452219 -1.2674,-2.132024 -2.20365,-4.426954 -2.69363,-6.845401 -0.766628,-1.275346 -1.234293,-2.86095 -2.22573,-3.913582 0.763545,2.66588 2.05127,5.144743 1.96176,7.992812 0.34018,3.260712 0.73452,6.545267 -0.0664,9.77859 -0.270695,2.222115 -1.193262,4.39261 -0.578192,6.630934 -0.05548,4.404791 -0.439685,8.931223 0.947012,13.188619 2.83065,4.879112 6.44562,9.32713 10.64015,13.052516 0.3617,-0.0665 2.09999,1.64736 1.60839,0.38976 z m 26.49658,-7.62627 c 0.7737,-2.013653 1.17734,-4.217328 0.79279,-6.323252 -0.36735,-2.419484 -0.35526,-4.934082 -1.69016,-7.090999 -0.95212,-2.479832 -2.68607,-4.557731 -4.15078,-6.720303 -0.97535,-0.620846 -2.39794,-2.087204 -3.11319,-2.16086 1.64072,4.011485 4.08364,7.675219 5.15332,11.915578 0.86619,2.556525 1.96682,5.0172 2.08954,7.741948 0.33178,0.663815 0.21705,4.262617 0.84341,2.804034 z m -51.024803,0.703068 c 0.113001,-4.196014 -0.280962,-8.397443 -0.237602,-12.600992 0.15948,-2.624075 0.799275,-5.189152 1.740876,-7.599011 0.373512,-1.573544 1.275238,-3.277839 -0.422573,-1.132676 -2.109462,1.695125 -3.523513,4.040258 -3.95799,6.713871 -0.51489,2.280634 -1.467937,4.608546 -0.562573,6.905742 0.673611,2.828772 2.041278,5.428751 2.752579,8.244166 1.017519,1.523456 0.757242,1.115639 0.687283,-0.5311 z m 47.598773,-5.628656 c -0.55754,-2.811023 -1.59282,-5.449866 -2.98301,-7.948981 -1.12967,-3.433006 -2.96142,-6.590128 -4.20156,-10.034063 -1.29982,-1.324764 -2.66775,-2.563371 -4.37524,-3.338763 1.99602,3.49804 2.77078,7.581922 5.14,10.883123 1.81276,3.125073 3.33318,6.40377 5.12343,9.535098 0.35568,0.224785 2.0702,2.737679 1.29638,0.903586 z m 8.99362,-6.909452 c 0.18321,-3.384852 -1.98421,-6.33051 -4.32017,-8.571339 -0.84969,-0.264676 -3.16645,-1.94588 -3.23315,-1.407338 2.52968,3.506599 4.55394,7.408887 7.58574,10.538098 -0.0109,-0.186493 -0.0215,-0.372934 -0.0324,-0.559421 z m -17.20847,-3.008043 c -1.20761,-3.193139 -2.85919,-6.176015 -5.17687,-8.697364 -1.84231,-2.739652 -4.72353,-4.436884 -7.0431,-6.733936 -1.59228,-1.450569 0.99123,1.517472 1.35929,1.97526 3.5201,4.140612 7.33829,8.062778 10.08401,12.793994 0.29147,0.355293 1.6197,2.440402 0.77667,0.662046 z m 17.24296,-2.650241 c -0.61431,-2.850151 -2.22983,-5.378119 -3.60912,-7.900275 -2.96368,-3.188111 -5.81417,-6.742264 -10.00729,-8.333747 -2.80717,-1.336485 -5.68366,-2.834627 -8.89074,-2.598737 -2.40634,0.01375 -4.89707,0.456248 -7.13202,-0.697259 -1.35888,-0.423105 -2.72444,-1.111567 -4.03813,-1.475388 4.21637,3.244307 8.88324,5.860549 13.85104,7.755735 3.6141,1.989726 8.3056,1.540866 11.37796,4.619171 1.96054,1.68564 4.13121,3.128754 6.0331,4.856672 0.9714,1.193925 1.86683,2.715576 2.47978,3.981862 z M 135.4294,58.035237 c -3.53503,-2.643647 -8.07383,-3.425053 -12.35032,-3.578256 4.07653,1.433189 8.30545,2.563557 12.48835,3.665601 z m 3.58858,43.214393 c 2.1139,-0.77077 4.40421,-1.544863 5.76385,-3.511172 1.20444,-1.064903 2.38558,-2.160649 3.35631,-3.458122 -0.50451,2.328057 -1.71219,4.452874 -3.84322,5.631887 -1.34542,1.516937 -3.49617,0.990747 -5.27694,1.337407 z m -29.3144,-49.510657 c -2.1058,-1.703357 -2.84744,-4.414741 -4.4925,-6.500279 -0.54799,-0.822964 -2.15687,-3.645083 -0.56656,-1.475742 1.94019,2.646611 4.82361,4.975276 5.39727,8.329485 0,0 -0.18031,-0.188443 -0.18031,-0.188443 z M 94.038666,41.307027 c -1.365579,-0.323789 -2.760964,-0.7062 -1.413224,-2.126479 1.576273,-0.356566 3.194189,-0.776756 4.778343,-0.277051 -1.182835,0.825072 -1.67105,2.784104 -3.365119,2.40353 z"
       id="path3-8" /></g></svg>
