<?xml version="1.0" encoding="UTF-8" standalone="no"?>
<!-- Created with Inkscape (http://www.inkscape.org/) -->

<svg
   width="33.507629mm"
   height="37.23064mm"
   viewBox="0 0 33.507629 37.23064"
   version="1.1"
   id="svg1"
   xml:space="preserve"
   xmlns="http://www.w3.org/2000/svg"
   xmlns:svg="http://www.w3.org/2000/svg"><defs
     id="defs1"><linearGradient
       id="swatch5"><stop
         style="stop-color:#000000;stop-opacity:1;"
         offset="0"
         id="stop5" /></linearGradient><linearGradient
       id="swatch2"><stop
         style="stop-color:#000000;stop-opacity:1;"
         offset="0"
         id="stop2" /></linearGradient><linearGradient
       id="swatch1"><stop
         style="stop-color:#ffffff;stop-opacity:1;"
         offset="0"
         id="stop1" /></linearGradient></defs><g
     id="layer4"
     transform="translate(-129.87812,-222.17902)"><g
       style="fill:#ffead7;fill-opacity:1;stroke:none"
       id="g21"
       transform="matrix(1.8615343,0,0,1.8615343,124.29352,218.45593)"><path
         fill-rule="evenodd"
         clip-rule="evenodd"
         d="M 9.70725,2.4087 C 9,3.03569 9,4.18259 9,6.4764 v 11.0472 c 0,2.2938 0,3.4407 0.70725,4.0677 0.70725,0.627 1.78825,0.4384 3.95035,0.0613 l 2.3288,-0.4061 C 18.3809,20.8288 19.5781,20.62 20.2891,19.7417 21,18.8635 21,17.5933 21,15.0529 V 8.94711 C 21,6.40671 21,5.13652 20.2891,4.25826 19.5781,3.37999 18.3809,3.17118 15.9864,2.75354 L 13.6576,2.34736 C 11.4955,1.97026 10.4145,1.78171 9.70725,2.4087 Z M 12,10.1686 c 0.4142,0 0.75,0.3514 0.75,0.7849 v 2.093 c 0,0.4335 -0.3358,0.7849 -0.75,0.7849 -0.4142,0 -0.75,-0.3514 -0.75,-0.7849 v -2.093 c 0,-0.4335 0.3358,-0.7849 0.75,-0.7849 z"
         fill="#1c274c"
         id="path1-1"
         style="fill:#ffead7;fill-opacity:1;stroke:none" /><path
         d="M 7.54717,4.5 C 5.48889,4.503 4.41599,4.54826 3.73223,5.23202 3,5.96425 3,7.14276 3,9.49979 v 5.00001 c 0,2.357 0,3.5355 0.73223,4.2678 0.68376,0.6837 1.75666,0.729 3.81494,0.732 C 7.49985,18.8763 7.49992,18.1557 7.50001,17.3768 V 6.6227 C 7.49992,5.84388 7.49985,5.1233 7.54717,4.5 Z"
         fill="#1c274c"
         id="path2"
         style="fill:#ffead7;fill-opacity:1;stroke:none" /></g></g></svg>
