<?xml version="1.0" encoding="UTF-8" standalone="no"?>
<!-- Created with Inkscape (http://www.inkscape.org/) -->

<svg
   width="72.274864mm"
   height="72.119164mm"
   viewBox="0 0 72.274864 72.119164"
   version="1.1"
   id="svg1"
   xml:space="preserve"
   xmlns="http://www.w3.org/2000/svg"
   xmlns:svg="http://www.w3.org/2000/svg"><defs
     id="defs1"><linearGradient
       id="swatch5"><stop
         style="stop-color:#000000;stop-opacity:1;"
         offset="0"
         id="stop5" /></linearGradient><linearGradient
       id="swatch2"><stop
         style="stop-color:#000000;stop-opacity:1;"
         offset="0"
         id="stop2" /></linearGradient><linearGradient
       id="swatch1"><stop
         style="stop-color:#ffffff;stop-opacity:1;"
         offset="0"
         id="stop1" /></linearGradient></defs><path
     style="display:inline;fill:#ec865b;fill-opacity:1"
     d="m 36.739124,70.20728 0.72784,0.46858 1.03451,0.79875 -2.45569,0.30696 -1.74942,0.33759 z m 6.11508,1.45537 -3.14595,-1.55528 -1.91833,-1.32304 -0.96674,-0.45303 h -0.0768 l -1.73942,0.97442 -1.63964,1.33352 -1.3123,0.6394 -1.80396,0.1906 -2.40529,0.006 -2.67861,-0.3982 -1.7475,-0.57308 -1.31681,-0.56993 -4.01619,-3.8477 -0.29382,-0.46031 -0.6339,-0.72837 -2.5543,-4.47484 -0.88389,-3.4886 -0.51829,-2.75848 -0.30645,1.00918 -0.32925,1.97369 v 1.30797 l 0.49958,3.81675 0.22638,0.44543 1.10534,1.63181 1.7493,1.41981 0.74178,0.7203 0.20096,0.328 0.0694,0.95893 -8.4675493,-3.12356 -3.18031,-3.5752 -2.05982,-3.3346 -2.41957,-4.784 L 0.08850463,50.319728 4.6321447e-6,49.117088 0.10761463,43.595868 l 0.16324,-0.71065 2.20424007,-5.19324 8.8569293,-8.4466 3.06603,-2.10281 1.92186,-1.91434 1.27608,-1.64473 1.02466,-3.189226 0.15064,-0.905928 -0.009,-3.115938 -0.13263,-1.202643 -0.31895,-1.594103 -0.77297,-2.232488 -0.48377,-2.3888815 -1.47013,-4.116324 -0.18166,-0.626633 -0.0936,-0.05782 -0.29494,-0.885628 0.25036,-0.53454 1.15548,0.670782 1.31311,0.607476 0.76532,0.0064 1.96796,-0.31927 1.29862,-1.129369 h 0.0912 l 0.42876,-0.631381 1.69983,-1.93371198 0.88966,2.42842898 2.41677,4.810571 0.29262,0.437325 2.80261,4.9435695 1.32169,1.540798 0.1484,0.05692 1.27094,1.406524 0.62268,0.18682 4.59191,-0.826736 4.78237,-0.05332 6.36941,1.020717 5.30256,2.182403 5.57589,2.295913 1.80397,0.987743 3.19155,3.43302 1.85826,1.61008 1.96443,3.35507 2.1408,6.5052 0.64595,1.25731 0.23332,2.62492 0.0648,3.77096 -0.50748,5.78704 -0.57606,1.25137 -1.34412,1.954812 -1.09208,0.674 -1.12505,2.69997 -1.96726,2.66583 -1.95637,1.80572 -1.54818,1.01217 -2.6064,0.6417 -1.65577,2.71755 -4.15916,4.48258 -2.5489,1.51797 -0.65599,0.24389 -2.29596,0.1628 -1.85863,0.43701 z m 2.21143,-0.97543 2.51037,-0.82667 0.1134,-0.1212 -0.43733,0.0782 -3.0066,0.079 -0.87465,-0.26547 -1.85863,-0.87613 -1.42131,-0.63954 0.81999,0.77469 1.40833,1.17968 1.26149,0.51581 1.3809,0.2054 z m -3.12167,-5.02249 -0.70507,-0.99337 -1.51693,-2.7409 -0.1692,-2.373 -0.0242,-5.13856 -2.31588,-6.723862 -1.09707,-2.65042 -0.55806,-3.82236 -0.0392,0.0392 -0.085,1.07626 0.10272,2.32329 0.10272,2.32329 0.65802,3.82659 0.21447,0.84232 0.83312,2.546952 0.3741,4.81056 1.19144,3.7376 1.17222,1.9363 0.33662,0.43179 2.24129,1.40071 z m 7.98472,0.75655 1.20473,-1.05961 0.28473,-0.44702 1.15674,-1.31537 0.39294,-1.80056 0.52599,-4.97265 -0.62633,-2.35253 -0.34319,-1.47905 -1.43325,-4.206172 -0.48819,-1.14798 -1.5691,-3.11891 -1.54049,-2.56631 -1.9583,-3.88126 -3.22447,-4.93478 -3.75355,-4.19437 -0.33165,-0.43732 -1.21733,-1.60228 -4.02688,-4.902927 -0.69326,-0.983981 -2.62974,-2.733116 -1.01196,-1.260694 -1.86194,-1.559284 2.89985,7.623135 0.1094,0.204427 0.67802,0.84147 0.8058,1.36664 3.61402,6.02273 0.46549,0.8295 0.166,0.63577 0.1128,0.0376 v 0.26757 l 0.27123,1.46857 0.71338,6.09926 0.9239,3.11594 0.25301,1.25389 0.253,1.25389 0.1251,0.46807 3.211,9.214582 2.09498,5.24789 0.68917,1.89749 0.51238,0.95471 1.46584,1.31822 3.74819,0.88519 z m -0.0253,-1.98262 0.28284,-0.94533 0.21124,-0.53891 0.157,-0.60906 0.40351,-2.56928 -0.016,-1.42131 -0.1162,-1.09331 -0.42701,-1.55635 -0.65542,-4.397682 0.0358,-0.0358 0.75431,1.464292 0.75431,1.46429 1.1569,1.96291 0.112,1.5357 -0.30597,1.85863 -0.056,1.2573 -0.40611,1.56432 -1.42131,1.72286 -0.46466,0.52747 z m -19.68009,0.52207 -1.17478,-0.8615 -1.98299,-2.13646 -3.87732,-5.52121 -3.18765,-5.531802 -0.28072,-0.80941 -0.0995,-5.24789 0.10822,-1.85863 0.20957,-1.42131 0.82507,-3.88126 -0.32388,-2.56928 -0.28898,-4.31858 0.14941,-3.35521 -0.65367,1.10887 -1.454,1.80317 -1.09445,2.17239 -2.51117,10.18781 -0.16022,4.15459 0.39187,2.13195 2.61412,7.414252 1.68457,2.28889 1.56432,2.41347 3.28353,2.27435 1.80258,0.95283 2.78933,0.65889 z m -7.5707,-3.54443 -3.09436,-3.20869 -1.18487,-2.42207 -0.38292,-0.92931 -1.26134,-2.569282 -0.78519,-1.85863 -0.15032,-1.03865 -0.27486,-1.41668 7.6e-4,-0.71528 0.33239,0.60132 0.97509,1.53064 0.86342,1.53064 1.19741,1.967962 0.48674,0.60132 1.56664,2.34303 1.29056,3.34218 0.33541,0.9556 0.91583,1.44968 0.2743,0.574 -0.006,-0.003 -0.006,-0.003 z m -6.48986,-21.395042 0.34709,-2.49402 0.60387,-2.40529 0.72114,-2.18088 0.43006,1.90614 -0.068,0.6509 -0.20629,0.22517 -0.32628,0.65599 -0.4024,1.07765 -0.38082,1.48587 -0.61406,1.18184 -0.1659,0.1359 z m 17.95432,23.308122 0.0818,-1.09331 0.89943,-3.22527 0.33155,-0.86021 -0.8631,-3.86828 -0.80141,-2.760682 -1.77911,-3.38927 -0.57256,-1.33931 h -0.0848 l -0.185,-0.46254 -0.0612,-1.5907 0.2536,-6.17909 -0.2538,-3.82143 -2.40119,-5.84921 -0.37662,-1.42131 -2.63142,-5.357226 -1.34195,-3.179283 -0.45169,-2.475863 -1.59636,-3.462204 -0.55956,-0.795874 0.58143,2.314707 0.38939,1.202643 0.0954,0.12148 0.32596,1.081163 0.24515,3.853923 0.139,2.596614 0.1082,1.69463 -0.1032,1.69464 -0.50253,2.78794 -0.33019,1.41263 -0.37643,1.86731 -0.44901,1.63996 0.1938,2.19053 -0.1246,2.89337 -0.23232,2.29596 -0.002,2.45995 0.1813,2.07729 0.3871,2.89259 0.20975,0.59679 3.24296,5.475782 0.73112,0.98398 1.21273,1.45633 0.57521,0.83962 2.13644,2.45995 1.87275,1.9133 0.112,0.20885 1.84448,1.06075 z m 27.14119,-6.72386 0.23455,-0.71209 0.49751,-2.6225 0.1911,-0.328 -0.1892,-1.639962 -0.014,-0.71066 -0.106,-0.49199 -0.26368,-3.66259 -2.04263,-5.07247 -0.74006,-1.05008 -1.92343,-3.23504 -3.22631,-2.64688 10e-4,0.1967 0.1492,0.56013 1.45927,3.30053 1.45927,3.30053 0.36503,0.65599 1.62742,5.58802 1.17036,3.72011 v 0.993882 l 0.54083,4.4577 0.0756,0.80207 z M 9.9017947,54.5829 l 0.2143593,-2.07729 0.0486,-8.965162 0.82164,-4.61554 1.2524,-2.90692 v -0.24679 l 0.21797,-0.83218 0.65336,-1.56637 -3.2809193,3.10245 -1.36672,2.09078 -1.58092,5.24296 v 0.1794 l -0.49176,1.84282 0.37325,1.91861 0.0738,0.60132 0.71348,2.62395 0.26791,0.53014 0.43672,1.547162 0.25786,0.60132 0.61384,2.57618 0.78888,1.21562 z m 46.9583493,-6.341212 -1.72459,-3.88125 -0.86046,-2.44057 0.0578,-0.0934 -0.66518,-1.78462 -0.55129,-1.14798 -0.90206,-2.24129 -0.95929,-2.73328 -2.13261,-2.18662 -2.10552,-1.32455 0.75648,1.54321 0.99663,2.73328 1.46409,4.0815 1.02776,1.78349 1.71646,3.53749 1.01753,1.91329 1.75046,3.94771 0.70875,1.2726 1.40191,1.686082 z m 10.03545,-5.19323 -1.23817,-2.7349 -1.71421,-2.44465 -0.93975,-0.97485 -3.32085,-1.84536 0.31919,0.68158 1.99815,3.05422 1.72194,3.07119 2.74745,3.78316 0.51386,0.55283 h 0.002 0.002 z m -17.25697,-1.86727 -1.99353,-4.63793 -4.35291,-5.9271 -1.67063,-1.38731 -3.89441,-3.75537 1.3748,1.97171 3.32202,4.21033 3.58005,4.50508 1.95154,3.10295 1.30763,2.15018 0.86606,1.27941 z m 17.16321,-3.21663 -1.44057,-3.22527 -1.24178,-2.60212 -3.56323,-4.21921 -1.00435,-0.89448 -1.5853,-1.64365 -2.25655,-1.42983 -6.16195,-3.059778 -1.31198,-0.378328 -3.11593,-0.28496 -3.6626,-0.002 -1.07434,-0.16194 -0.51096,-0.229063 -2.62395,-1.018755 -2.77744,-1.214941 -0.0426,0.04258 0.52408,0.464618 3.0886,2.273325 3.8391,2.585003 5.62517,2.721584 1.60551,0.9196 4.75591,1.47995 2.60968,0.94076 1.76357,1.22481 4.04525,3.56229 2.18238,1.68984 0.68165,0.81403 1.269,2.02859 0.83789,1.88047 z m -10.09258,-18.264527 -2.56928,-1.218175 -1.97464,-0.658346 -0.70398,-0.16282 -1.91329,-0.283687 -1.9133,-0.384252 -1.25366,-0.0963 -0.0356,0.03564 0.38108,0.224839 1.03146,0.274536 3.97669,1.492356 1.05152,0.364707 2.1455,0.611035 0.7389,0.263061 1.25731,0.38476 1.20264,0.326636 0.49199,0.218485 0.0546,0.002 z m 3.68993,44.601229 0.90198,-0.25075 1.77144,-0.69377 h 0.0606 l 1.00763,-0.39845 0.61905,-0.42257 1.95318,-1.88887 1.29837,-1.00722 1.52521,-1.62715 0.25429,-0.28618 -0.1414,0.47011 -0.49152,1.25175 -0.61006,1.26921 -0.55038,0.81468 -2.7604,2.0087 -0.76532,0.5701 -4.07258,0.2382 z m -28.72969,-52.138854 -1.57458,-3.1706045 -0.35053,-0.49199 -1.36929,-2.35966 -0.70602,-1.412266 -0.0828,-0.273328 1.76834,2.429706 1.69352,2.162203 0.86332,1.1479785 1.00164,1.967961 0.30561,0.765931 0.21429,1.099703 z M 15.740554,1.8085085 16.527584,0.44925852 19.319604,-4.8659256e-7 21.274524,0.32497952 l 0.0387,0.03866 -0.82174,0.73837098 -1.37703,1.514657 -1.1926,0.03392 z"
     id="path3-82" /></svg>
