<?xml version="1.0" encoding="UTF-8" standalone="no"?>
<!-- Created with Inkscape (http://www.inkscape.org/) -->

<svg
   width="74.539635mm"
   height="80.212524mm"
   viewBox="0 0 74.539635 80.212524"
   version="1.1"
   id="svg1"
   xml:space="preserve"
   xmlns="http://www.w3.org/2000/svg"
   xmlns:svg="http://www.w3.org/2000/svg"><defs
     id="defs1"><linearGradient
       id="swatch5"><stop
         style="stop-color:#000000;stop-opacity:1;"
         offset="0"
         id="stop5" /></linearGradient><linearGradient
       id="swatch2"><stop
         style="stop-color:#000000;stop-opacity:1;"
         offset="0"
         id="stop2" /></linearGradient><linearGradient
       id="swatch1"><stop
         style="stop-color:#ffffff;stop-opacity:1;"
         offset="0"
         id="stop1" /></linearGradient></defs><g
     id="layer2"
     transform="translate(-15.714684,-42.183604)"><path
       id="path8"
       style="fill:#ec865b;fill-opacity:1;stroke:none;stroke-width:0;stroke-linecap:round;stroke-linejoin:round;stroke-dasharray:none"
       d="m 74.514195,103.45729 a 3.4000001,3.4000001 0 0 0 -2.138888,0.68523 3.4000001,3.4000001 0 0 0 -0.664042,4.76198 l 9.167916,12.14086 a 3.4000001,3.4000001 0 0 0 4.761983,0.66405 3.4000001,3.4000001 0 0 0 0.664042,-4.76199 l -9.167915,-12.14034 a 3.4000001,3.4000001 0 0 0 -2.623096,-1.34979 z M 52.985143,42.183603 c -20.546324,0 -37.270458,16.724563 -37.270459,37.270887 10e-7,20.54632 16.724135,37.26917 37.270459,37.26917 20.546322,0 37.269178,-16.72285 37.269178,-37.26917 0,-20.546322 -16.722856,-37.270885 -37.269178,-37.270887 z m 0,6.285307 c 17.150206,2e-6 30.985583,13.835373 30.985583,30.98558 0,17.150206 -13.835377,30.98557 -30.985583,30.98557 -17.150208,0 -30.986861,-13.835364 -30.986861,-30.98557 0,-17.150209 13.836653,-30.98558 30.986861,-30.98558 z m -10.383729,6.463181 -1.005106,0.903304 1.561661,1.268656 0.98547,0.288871 1.529105,-0.873848 0.869198,-0.38654 -0.0217,-0.04186 -1.514119,-0.784965 z m -1.640727,1.533756 -0.347265,0.371037 0.0062,0.803568 0.0615,0.07183 -0.01757,0.561206 0.110071,3.759977 -0.238229,2.08411 0.03979,2.032951 -0.162264,1.38958 -0.210323,1.019576 -0.820105,2.553332 -0.364319,0.701249 -1.685168,2.338876 -1.481563,1.007173 -2.081527,1.056783 -3.068547,0.907438 -6.549987,3.148129 c 0.05674,1.803915 0.277909,3.564829 0.651639,5.268412 l 1.074353,-1.548743 1.674317,-1.348755 3.509346,-1.668115 -0.950846,1.10846 -0.399459,0.623217 -0.06511,0.202055 -1.797307,2.047421 -1.898075,3.559989 -0.159163,0.482141 c 0.661756,1.85631 1.507022,3.624208 2.518192,5.279781 l -0.0016,-0.05168 0.245463,-1.848983 1.234033,-3.358451 4.76095,-7.672917 1.472778,-1.487765 1.669149,-1.089855 0.829407,-0.734323 -1.012858,2.706812 -0.910539,3.612183 -0.417029,2.189013 -1.705839,2.957959 -0.54932,1.107943 -0.581877,1.492932 -1.312065,4.322217 0.01499,0.736906 0.534334,2.519743 c 0.918902,0.911741 1.900056,1.761221 2.935738,2.541961 l -1.18184,-5.257558 -0.01292,-0.544153 0.451135,-2.47065 0.403076,-1.74873 0.654741,-2.013314 0.799951,-1.81746 0.870231,-2.335258 0.42323,-1.844849 0.803052,-1.223181 0.804085,-1.428853 0.645439,-1.068669 1.151351,-2.148706 0.534851,-1.359607 0.361218,-1.415934 0.575675,-2.162659 0.822689,-3.219959 0.02015,-0.971516 -0.04547,-0.124541 5.16e-4,-1.087789 0.138493,-2.049487 0.247014,0.799951 0.387056,3.258199 -0.287321,2.146639 0.254248,2.958993 0.731222,5.083927 -0.06925,1.263489 0.412378,5.426025 -0.806669,3.195671 -1.848466,4.990393 -0.372587,1.318783 0.02894,0.427364 0.06925,0.02274 0.113172,1.248503 0.556555,3.246826 -0.07752,2.47272 -0.229443,2.43034 c 0.638611,0.23464 1.291013,0.44087 1.950268,0.63046 l 0.575159,-2.39056 -0.0057,-2.30631 0.04806,-0.74621 0.47749,-3.307294 0.532784,-1.929081 0.532784,-1.929081 0.355534,-0.858346 0.04237,-0.0217 -0.558106,3.27732 0.194303,2.460831 0.110071,6.119011 -0.655257,2.05258 c 0.574914,0.12869 1.154967,0.24429 1.742529,0.33796 l -0.03101,-0.4656 -0.181902,-8.39535 0.02222,-0.416513 0.125574,-1.093473 0.126091,-1.093473 0.0708,-2.796212 1.036113,-5.182113 0.167948,-1.27434 0.0708,-0.219108 -0.08217,-0.06046 0.03256,-0.564823 -0.160714,-0.802535 -1.35909,-5.89008 -0.296623,-1.332735 -0.331246,-0.868681 -0.03566,-0.19637 -0.349332,-7.010425 1.110009,1.770951 0.49351,1.300696 1.427303,2.935738 0.305925,0.989604 1.99471,5.082894 0.571025,1.634525 0.155029,0.446484 1.959054,4.430221 1.329117,4.895825 0.572058,3.696932 0.57981,2.509925 0.456303,2.969846 0.09457,1.06918 0.05581,3.78736 c 1.223615,-0.23082 2.418551,-0.53922 3.581177,-0.91984 l -0.133842,-0.68213 -0.384989,-3.69589 -0.324528,-1.83658 -0.466122,-3.351732 -0.367419,-1.732711 -0.114722,-3.730005 -0.08992,-2.502173 -0.209806,-1.463993 1.372009,1.64331 1.165304,2.356446 0.05943,2.491837 0.143143,2.074292 0.146245,1.086239 0.0708,1.637626 -0.07235,0.06098 0.05633,2.226224 0.381372,3.63543 -0.145728,1.40715 c 0.588268,-0.21926 1.16468,-0.46121 1.733744,-0.71726 l 0.0031,-0.36071 0.151929,-5.00641 -0.12454,-0.63407 -0.318327,-3.089217 -0.31781,-3.089217 0.02636,-0.498161 0.05168,-0.16123 1.937866,3.023588 0.715719,3.15898 0.326595,1.055749 0.290422,4.184758 c 1.101259,-0.6471 2.153774,-1.36629 3.153812,-2.15026 l -0.172082,-0.52916 -0.594279,-2.971398 -0.824239,-3.030823 -0.08062,-0.642855 2.228288,2.392619 0.510563,1.047482 0.688847,2.244305 c 0.416128,-0.38397 0.818148,-0.782752 1.210779,-1.190623 l -5.17e-4,-0.0047 -0.500228,-1.997811 -0.341581,-0.847493 -1.337903,-1.962671 -2.365747,-3.989937 -1.118278,-1.471228 -1.88619,-1.46296 -3.500561,-2.474268 -1.069702,-1.179256 -3.881934,-3.721737 -2.456181,-3.135209 -1.924947,-2.68149 -0.305408,-0.519348 0.04599,-0.02377 1.950786,1.732194 1.877405,1.530656 0.357601,0.323494 0.836641,0.417546 2.99775,0.974617 2.474784,1.060401 0.973584,0.658357 4.231783,4.140833 1.467094,1.769401 0.861446,1.766817 0.584461,0.998906 1.796789,4.399731 0.325562,2.459798 0.301273,2.825668 c 1.605392,-1.735557 3.000869,-3.667555 4.139283,-5.762439 l -5.17e-4,-0.07338 -0.716752,-3.268018 -1.09399,-1.811258 -1.700672,-3.658175 -1.214396,-1.28726 -3.954797,-3.360002 -3.761011,-3.194637 -4.942851,-2.526977 -3.928959,-1.226282 -3.978568,-0.542603 -0.459921,-0.318326 -0.667142,-1.488798 -0.106454,-0.0863 -0.672827,-1.611788 -0.981336,-4.791439 -0.123506,-0.435632 -0.700733,-4.579565 -0.08372,-2.224154 -1.904794,1.131714 -0.518314,0.403076 -0.07493,-0.02429 -1.362708,0.579293 -1.69602,-0.260966 -0.624768,-0.208256 -0.91364,-0.845943 z m 9.629387,4.681368 -0.0047,0.24598 0.203088,1.34307 0.494027,2.295468 0.15658,0.495576 0.447001,3.01377 0.948262,1.995227 0.116272,-0.957047 -0.04651,-0.707968 -0.297606,-1.876888 -0.401526,-1.16892 -0.812353,-2.219503 z m 12.081433,15.175818 1.000972,0.411861 1.463994,0.822172 1.490865,0.740523 0.533301,0.320394 1.441255,1.062985 1.779737,1.679484 1.240751,1.663981 -0.04392,-0.01602 -0.344682,-0.309542 -0.898136,-0.586527 -0.927076,-0.649056 -0.534851,-0.411345 -1.594218,-1.070219 -0.763777,-0.577742 -2.858741,-2.277381 -0.771529,-0.498677 -0.252181,-0.285254 z m -9.361703,4.723226 2.191081,4.107759 0.998906,1.579749 1.989542,6.007385 0.400493,4.326351 v 1.367875 l -0.369487,-1.277441 -0.499194,-2.107365 -0.773596,-3.058211 -1.734262,-4.638477 -1.601452,-4.328935 z m -18.266585,0.83044 -1.169438,1.593701 -1.132747,1.808675 -0.946712,1.949235 -0.113688,0.179834 0.171565,-0.0677 0.816488,-0.804085 0.706417,-1.115177 0.615466,-0.775147 0.441317,-0.450618 0.228927,-0.129708 0.228409,-0.514697 z m -5.69681,11.104749 -0.190686,0.584977 -0.150895,1.233 -0.07648,0.445967 c 0.424756,0.63647 0.877722,1.251623 1.350822,1.850533 l -0.128158,-0.540018 -0.300757,-1.482081 -0.391707,-1.512052 z m 26.978715,12.383222 -0.03876,0.0196 -0.40411,2.41639 c 0.276193,-0.0299 0.550494,-0.0662 0.824239,-0.10387 l -0.152445,-0.93328 z" /></g></svg>
