<?xml version="1.0" encoding="UTF-8" standalone="no"?>
<!-- Created with Inkscape (http://www.inkscape.org/) -->

<svg
   width="68.767677mm"
   height="77.084312mm"
   viewBox="0 0 68.767677 77.084312"
   version="1.1"
   id="svg1"
   xml:space="preserve"
   xmlns="http://www.w3.org/2000/svg"
   xmlns:svg="http://www.w3.org/2000/svg"><defs
     id="defs1"><linearGradient
       id="swatch5"><stop
         style="stop-color:#000000;stop-opacity:1;"
         offset="0"
         id="stop5" /></linearGradient><linearGradient
       id="swatch2"><stop
         style="stop-color:#000000;stop-opacity:1;"
         offset="0"
         id="stop2" /></linearGradient><linearGradient
       id="swatch1"><stop
         style="stop-color:#ffffff;stop-opacity:1;"
         offset="0"
         id="stop1" /></linearGradient></defs><g
     id="layer2"
     transform="translate(-26.266007,-50.711655)"><path
       id="path6"
       style="opacity:1;fill:#000000;fill-opacity:1;stroke:none;stroke-width:2;stroke-linejoin:round"
       d="m 61.473738,94.542267 c -1.057814,2.384359 0.514129,7.618603 3.237251,5.553873 0.620687,-2.143098 0.07856,-4.55536 -2.29575,-5.074154 z m -12.187443,-1.91994 c -2.87948,3.081216 5.482201,5.818234 2.755505,1.345982 -0.839245,-0.560549 -1.88975,-0.740252 -2.755505,-1.345982 z m -2.501006,21.188303 c 2.832134,-4.18123 7.803552,-8.38895 13.194588,-6.77736 1.336557,0.33513 4.677171,2.07218 1.708477,0.71662 2.344015,1.90969 4.555197,4.12625 5.253572,7.2024 0.473887,2.15232 5.236541,4.15249 3.133371,0.40749 -2.204843,-4.94603 -7.046023,-8.33385 -12.007296,-10.17707 -4.462971,-2.03011 -9.24803,0.67418 -12.264759,3.95964 -1.617342,1.478 -3.4274,3.14461 -0.301336,3.92444 0.427794,0.24795 0.855588,0.49589 1.283383,0.74384 z m -10.79024,-20.6087 c -4.563045,-0.660536 -7.223981,0.906677 -8.698815,5.514658 -1.565666,4.064792 -1.652838,9.422712 1.914706,12.484622 4.657782,4.4857 11.07628,6.29526 16.454053,9.70926 5.310977,2.71699 10.758609,5.50148 16.62358,6.73169 6.387858,0.56271 12.82564,-0.50118 19.048335,-1.85185 5.477086,-1.44877 10.514686,-5.20229 12.35336,-10.71908 1.825954,-3.9497 2.206912,-9.3532 -1.533224,-12.36028 -4.73146,-4.345623 -11.140843,-6.043957 -17.381641,-6.685724 -1.684424,0.118874 -6.737997,-1.933481 -6.196796,0.515884 3.343512,2.27888 7.534732,2.37987 11.376675,3.236661 2.847933,0.245419 6.151416,0.869549 8.662348,-0.790349 3.06166,-3.189946 0.558569,-8.335075 -3.111947,-9.795734 -4.352355,-2.619928 -9.515035,-3.486031 -14.49763,-3.673213 2.202234,2.734276 6.19454,2.700036 9.198223,1.329181 3.509887,-1.765739 3.895828,-7.65674 0.191332,-9.50792 -5.854057,-4.356914 -13.343112,-6.217821 -20.561714,-5.461972 -1.362051,0.148869 -6.104907,-1.758383 -5.033778,-1.326152 1.432948,1.109364 2.418828,1.162627 0.761972,-0.354422 -2.501745,-4.57027 1.656416,-8.611669 4.197177,-11.947716 2.18339,-2.352393 1.542145,-8.451126 -2.426101,-7.348901 -0.549377,3.035936 -0.124717,6.640036 -3.010297,8.735006 -2.855086,2.559499 -6.353498,4.801509 -7.480577,8.709346 -2.424305,6.451098 1.323016,13.881136 7.282977,16.889011 1.387912,0.794651 5.888422,3.06052 5.582317,2.217652 -3.822628,-3.1733 -9.039583,-3.490325 -13.685016,-4.654987 -4.899719,-0.782878 -10.366837,-1.099686 -14.829466,1.400369 -3.915135,3.748907 0.998937,8.09942 4.415736,9.798942 1.685244,1.409197 6.928755,3.498265 7.162847,2.5517 -1.118824,-1.821704 -5.297475,-2.32305 -6.185713,-2.936385 -1.103299,-0.904495 -3.35913,-1.671034 -3.32451,-3.696439 -0.675455,-3.730594 3.920683,-5.269367 6.878281,-5.489916 6.87544,-0.359267 13.526881,1.639164 20.08436,3.433659 -1.028834,-1.734549 -5.989859,-3.544864 -5.81092,-3.225943 3.487234,2.174335 -2.427727,-1.775712 -2.686917,-3.323692 -3.317476,-4.77431 -2.859914,-11.832396 1.546261,-15.80383 2.877671,-2.814503 7.136384,-5.119206 7.180732,-9.705279 0.851355,-2.517782 -0.884269,-4.51115 -3.276272,-5.088135 1.832887,4.87424 -3.317799,8.064624 -5.263212,11.816573 -2.108649,4.538537 1.424888,9.027433 5.763111,10.292771 4.499431,2.296778 9.59052,0.389478 14.297942,1.728768 1.88746,0.206399 6.059368,2.075523 6.183804,2.066988 -4.124195,-2.541797 2.698688,1.348016 1.446808,3.752687 0.182508,3.955186 -3.980327,5.649544 -7.321384,4.97927 -3.819822,0.312761 2.378778,2.848834 3.926057,2.639299 3.018746,-0.05813 8.161537,1.439487 9.517265,2.041371 -3.799572,-2.309302 1.962411,1.756998 0.870414,3.556763 0.232869,5.146514 -6.4082,4.755581 -9.884271,3.946666 -2.201465,-3.02e-4 -7.538515,-2.137817 -7.542348,-1.463977 1.541682,0.767819 3.287767,1.824946 3.038921,1.552868 4.800785,0.432816 9.696803,0.95403 14.290568,2.461881 1.399858,0.49467 3.758965,1.66238 1.131421,0.21954 -1.530514,-0.860494 3.198278,2.15151 3.146378,3.60182 2.192828,4.52079 -0.08282,9.69132 -2.636627,13.55261 -3.880672,5.58104 -11.093322,6.88067 -17.380624,7.69012 -5.405873,0.57986 -11.075684,1.19908 -16.205505,-1.08683 -7.357194,-2.75289 -14.105658,-6.78472 -21.053317,-10.39267 3.759841,2.36864 -3.147855,-2.05297 -3.05521,-4.04455 -1.506622,-3.57985 -0.814426,-7.98868 1.342248,-11.174885 1.896583,-2.897082 3.056437,-3.416155 6.394843,-2.896465 1.799325,-0.310784 -1.775808,-1.713283 -2.19122,-2.35034 z" /></g></svg>
