<svg
  viewBox="0 0 35.622292 31.322815"
  xml:space="preserve"
  xmlns="http://www.w3.org/2000/svg"
  xmlns:svg="http://www.w3.org/2000/svg"
>
  <g transform="translate(-168.85239,-158.84902)" >
    <path
       style="fill:none;stroke:#ec865b;stroke-width:0.565;stroke-linecap:round;stroke-linejoin:round;stroke-dasharray:none;stroke-opacity:1"
       d="m 197.46033,165.3475 c -2.099,0.0504 -3.93812,1.88074 -4.11086,3.93394 -0.13665,1.34508 0.31012,2.76647 1.31865,3.68826 0.21631,0.15215 0.59317,0.2516 0.63611,0.52565 -0.50882,1.09723 -1.61434,1.70558 -2.53757,2.40759 -0.34818,0.17444 -0.35843,0.47001 0.0794,0.39796 1.52163,-0.25739 2.98601,-0.96923 4.13881,-1.98419 0.4559,-0.53438 1.23523,-0.27317 1.8205,-0.53239 1.47887,-0.45291 2.43354,-1.97086 2.62322,-3.43882 0.19263,-1.45063 -0.15037,-3.1009 -1.23324,-4.15648 -0.74984,-0.63787 -1.77898,-0.86223 -2.73506,-0.84152 z m 1.96577,3.91906 c 0.0102,-0.20945 0.0253,-0.49503 -0.009,-0.66037 -0.07,-0.36828 -0.40177,-0.57357 -0.74566,-0.54236 -0.33603,0.0478 -0.41494,0.0667 -0.59303,0.24001 m 0.0507,-1.42075 c -0.0515,0.76013 -0.0494,1.52191 -0.0515,2.2833 m -1.74975,-1.46193 c -0.72761,0.15133 -0.82175,1.45291 -0.0257,1.56015 0.45689,0.0713 0.884,-0.40815 0.77449,-0.87716 -0.0351,-0.34314 -0.34485,-0.74754 -0.74882,-0.68299 z m 2.17729,2.75426 c -0.63397,0.22107 -0.70393,1.41003 0.0636,1.47868 0.68051,0.10069 1.25178,-0.93504 0.65174,-1.36931 -0.2121,-0.11623 -0.47997,-0.16566 -0.71535,-0.10937 z m -1.44519,1.50995 c 0.0748,-0.31367 -0.014,-0.85962 -0.33628,-1.0704 -0.2261,-0.14786 -0.60787,-0.0765 -0.95381,0.12244 m -0.0125,-0.37698 c -0.009,0.44417 -0.0111,0.77662 0.006,1.19876 m -1.36157,17.79376 c 0.52841,-2.45547 1.35753,-5.07902 1.96822,-7.51344 0.17654,-0.71001 0.30004,-1.67063 -0.37571,-2.16254 -0.62174,-0.29377 -1.23871,0.24382 -1.52921,0.76008 -0.8701,1.2764 -1.05209,2.92182 -2.04834,4.11861 -0.33795,0.35824 -1.09293,0.35678 -1.2127,-0.20509 -0.33977,-1.13615 -0.0791,-2.33854 -0.12903,-3.50292 0.002,-2.05288 -0.21471,-4.23696 -1.4029,-5.98191 -0.85305,-1.18199 -2.30407,-1.76324 -3.7407,-1.62468 -2.4298,0.20853 -4.5264,2.07483 -5.31484,4.34797 -1.00196,2.31304 -1.18926,4.8836 -2.18801,7.19772 -0.19096,0.33804 -0.44391,0.93157 -0.92956,0.7793 -0.59142,-0.29296 -0.67817,-1.04156 -0.90618,-1.59364 -0.34879,-1.14038 -0.62569,-2.46253 -1.6606,-3.19619 -0.44708,-0.29961 -1.06744,-0.10971 -1.28784,0.37497 -0.44776,0.82637 -0.2958,1.81832 -0.23842,2.7166 0.19049,1.36707 0.74003,2.65606 1.22855,3.92993 0.24617,0.59549 0.50795,1.18248 0.7508,1.77919 m 8.88807,-12.22625 0.0309,0.003 z m 3.65362,0.25248 0.0165,0.005 z m -3.414,2.10396 c 0.93892,0.16853 1.85785,0.33266 2.78104,0.18192"
    />
    <rect
      style="fill:none;stroke:#ec865b;stroke-width:0.564999;stroke-linecap:round;stroke-linejoin:round;stroke-dasharray:none;stroke-opacity:1"
      width="35.057293"
      height="30.757812"
      x="169.13489"
      y="159.13152"
    />
  </g>
</svg>
