<?xml version="1.0" encoding="UTF-8" standalone="no"?>
<!-- Created with Inkscape (http://www.inkscape.org/) -->

<svg
   width="31.63673mm"
   height="37.23069mm"
   viewBox="0 0 31.63673 37.23069"
   version="1.1"
   id="svg1"
   xml:space="preserve"
   xmlns="http://www.w3.org/2000/svg"
   xmlns:svg="http://www.w3.org/2000/svg"><defs
     id="defs1"><linearGradient
       id="swatch5"><stop
         style="stop-color:#000000;stop-opacity:1;"
         offset="0"
         id="stop5" /></linearGradient><linearGradient
       id="swatch2"><stop
         style="stop-color:#000000;stop-opacity:1;"
         offset="0"
         id="stop2" /></linearGradient><linearGradient
       id="swatch1"><stop
         style="stop-color:#ffffff;stop-opacity:1;"
         offset="0"
         id="stop1" /></linearGradient></defs><g
     id="layer4"
     transform="translate(-7.4741726,-221.84271)"><g
       style="fill:#ffead7;fill-opacity:1;stroke:none"
       id="g22"
       transform="matrix(1.8615344,0,0,1.8615344,1.0956177,218.07705)"><path
         fill-rule="evenodd"
         clip-rule="evenodd"
         d="m 4.598074,3.1944521 c -1.17157,1.17158 -1.17157,3.05719 -1.17157,6.8284299 v 4 c 0,3.7712 0,5.6569 1.17157,6.8284 1.17158,1.1716 3.05719,1.1716 6.82843,1.1716 h 0.994976 c 3.7712,0 5.6569,0 6.8284,-1.1716 1.1716,-1.1715 1.1716,-3.0572 1.1716,-6.8284 v -4 c 0,-3.7712399 0,-5.6568499 -1.1716,-6.8284299 -1.1715,-1.17157 -3.0572,-1.17157 -6.8284,-1.17157 h -0.994976 c -3.77124,0 -5.65685,0 -6.82843,1.17157 z m 2.575918,4.82843 c 0,-0.41421 0.33579,-0.75 0.75,-0.75 h 7.497488 c 0.4142,0 0.75,0.33579 0.75,0.75 0,0.41421 -0.3358,0.75 -0.75,0.75 H 7.923992 c -0.41421,0 -0.75,-0.33579 -0.75,-0.75 z m 0,3.9999999 c 0,-0.4142 0.33579,-0.75 0.75,-0.75 h 7.497488 c 0.4142,0 0.75,0.3358 0.75,0.75 0,0.4142 -0.3358,0.75 -0.75,0.75 H 7.923992 c -0.41421,0 -0.75,-0.3358 -0.75,-0.75 z m 0.75,3.25 c -0.41421,0 -0.75,0.3358 -0.75,0.75 0,0.4142 0.33579,0.75 0.75,0.75 h 4.497488 c 0.4142,0 0.75,-0.3358 0.75,-0.75 0,-0.4142 -0.3358,-0.75 -0.75,-0.75 z"
         fill="#1c274c"
         id="path1-7"
         style="fill:#ffead7;fill-opacity:1;stroke:none" /></g></g></svg>
