

<svg
   width="59.945297mm"
   height="57.604279mm"
   viewBox="0 0 59.945297 57.604279"
   xmlns="http://www.w3.org/2000/svg"
   xmlns:svg="http://www.w3.org/2000/svg"><g
     transform="translate(-75.418066,-94.955729)"><path
       style="fill:none;stroke:#000000;stroke-width:2;stroke-linecap:round;stroke-dasharray:none;stroke-opacity:1"
       d="m 110.75495,141.99404 h -10.23173 m 11.82633,-7.91574 H 99.311489 m 18.788451,4.06417 h 9.0289 c 3.99552,0 7.23453,-3.23901 7.23453,-7.23453 v -13.23571 c 0,-3.99552 -3.23901,-7.23453 -7.23453,-7.23453 H 83.652604 c -3.99552,0 -7.234529,3.23901 -7.234529,7.23453 v 13.23571 c 0,3.99552 3.239009,7.23453 7.234529,7.23453 h 9.652983 m -0.03113,-8.70458 C 93.255458,126.55067 95.59072,124.2 98.477998,124.2 H 112.662 c 2.92031,0 5.41136,2.31485 5.41021,5.23517 l -0.007,16.88966 c 0.0942,2.86304 -1.63897,5.23517 -4.50355,5.23517 H 98.657998 c -2.898426,0 -5.253394,-2.33953 -5.27246,-5.23789 z m -0.07675,-19.00841 -0.05554,-9.23586 c -0.01736,-2.88723 2.31627,-5.23789 5.20355,-5.23789 h 14.184003 c 2.92031,0 5.3142,2.31643 5.41021,5.23517 l 0.27779,9.23858" /></g></svg>
