<svg
  viewBox="0 0 37.130867 37.130875"
  xml:space="preserve"
  xmlns="http://www.w3.org/2000/svg"
  xmlns:svg="http://www.w3.org/2000/svg"
>
  <g transform="translate(-216.21234,-221.45624)" >
    <path
      style="display:inline;fill:#949e70;fill-opacity:1;stroke:none;stroke-width:1.86137;stroke-linecap:round;stroke-linejoin:round"
      d="m 248.27995,245.08499 c -1.68778,1.68778 2.10971,6.32913 0,8.43884 -2.10973,2.1097 -6.75108,-1.68776 -8.43885,0 -1.68776,1.68777 -2.53165,5.0633 -5.06331,5.0633 -2.53164,0 -3.37553,-3.37553 -5.0633,-5.0633 -1.68776,-1.68776 -6.32913,2.1097 -8.43884,0 -2.1097,-2.10971 1.68778,-6.75106 0,-8.43884 -1.68777,-1.68777 -5.0633,-2.53164 -5.0633,-5.0633 0,-2.53164 3.37553,-3.37553 5.0633,-5.06331 1.68778,-1.68777 -2.1097,-6.32912 0,-8.43883 2.10971,-2.10971 6.75108,1.68778 8.43884,0 1.68777,-1.68777 2.53166,-5.0633 5.0633,-5.0633 2.53166,0 3.37555,3.37553 5.06331,5.0633 1.68777,1.68778 6.32912,-2.10971 8.43885,0 2.10971,2.10971 -1.68778,6.75106 0,8.43883 1.68775,1.68778 5.06328,2.53167 5.06328,5.06331 0,2.53166 -3.37553,3.37553 -5.06328,5.0633 z"
    />
    <path
      style="display:inline;fill:none;stroke:#ffead7;stroke-width:2.4;stroke-linecap:round;stroke-linejoin:round;stroke-dasharray:none;stroke-opacity:1"
      d="m 229.57439,240.68822 3.08696,2.92326 7.31984,-7.17953"
    />
  </g>
</svg>
